# xmcd
#
# Track frame offsets:
#	150
#	15343
#	38038
#	57322
#	75769
#	93172
#	110949
#	131508
#	153266
#	176037
#	196177
#	214033
#	237809
#	260055
#	278238
#
# Disc length: 3950 seconds
#
# Revision: 0
# Processed by: cddbd v1.5.2PL0 Copyright (c) Steve Scherf et al.
# Submitted via: EasyCDDAExtractor 11.9.9.666
#
DISCID=c00f6c0f
DTITLE=Tony Cetinski - Ako to se zove ljubav
DYEAR=2008
DGENRE=Pop
TTITLE0=Svetica
TTITLE1=Ako to se zove ljubav
TTITLE2=Umirem 100x dnevno
TTITLE3=Od milijun žena
TTITLE4=Moje drugo proljeće
TTITLE5=Dobra ti noć bivša ljubavi
TTITLE6=Čuvam ovu ljubav svetu
TTITLE7=Kraj jedne ljubavi
TTITLE8=Sjena što te prati
TTITLE9=Sjećanje
TTITLE10=Opet ljubim prvi put
TTITLE11=Drama
TTITLE12=Nemirne noći
TTITLE13=Dođite mi noćas svi
TTITLE14=Kad žena zavoli
EXTD=
EXTT0=
EXTT1=
EXTT2=
EXTT3=
EXTT4=
EXTT5=
EXTT6=
EXTT7=
EXTT8=
EXTT9=
EXTT10=
EXTT11=
EXTT12=
EXTT13=
EXTT14=
PLAYORDER=
